<mxfile host="app.diagrams.net" modified="2023-11-06T13:57:47.705Z" agent="Mozilla/5.0 (Windows NT 10.0; Win64; x64) AppleWebKit/537.36 (KHTML, like Gecko) Chrome/119.0.0.0 Safari/537.36 Edg/119.0.0.0" etag="TX8k_TpNqNTANq92fOVc" version="22.0.8" type="github">
  <diagram name="第 1 页" id="rbtluQ0g3gsyuVAGRLtw">
    <mxGraphModel dx="1173" dy="1834" grid="1" gridSize="10" guides="1" tooltips="1" connect="1" arrows="1" fold="1" page="1" pageScale="1" pageWidth="827" pageHeight="1169" math="0" shadow="0">
      <root>
        <mxCell id="0" />
        <mxCell id="1" parent="0" />
        <mxCell id="hy1Hl5cKsVYk31SHtU6z-21" value="个人电脑&lt;br&gt;医院后台管理Web端" style="image;points=[];aspect=fixed;html=1;align=center;shadow=0;dashed=0;image=img/lib/allied_telesis/computer_and_terminals/Laptop.svg;flipH=1;imageBorder=none;imageBackground=#FFFFFF;" vertex="1" parent="1">
          <mxGeometry x="400.0000000000001" y="-450" width="98.59" height="100" as="geometry" />
        </mxCell>
        <mxCell id="hy1Hl5cKsVYk31SHtU6z-70" style="edgeStyle=orthogonalEdgeStyle;rounded=0;orthogonalLoop=1;jettySize=auto;html=1;" edge="1" parent="1" source="hy1Hl5cKsVYk31SHtU6z-26" target="hy1Hl5cKsVYk31SHtU6z-53">
          <mxGeometry relative="1" as="geometry" />
        </mxCell>
        <mxCell id="hy1Hl5cKsVYk31SHtU6z-71" value="按时按量&lt;br&gt;按医嘱服药" style="edgeLabel;html=1;align=center;verticalAlign=middle;resizable=0;points=[];" vertex="1" connectable="0" parent="hy1Hl5cKsVYk31SHtU6z-70">
          <mxGeometry x="0.3529" y="-2" relative="1" as="geometry">
            <mxPoint x="32" y="12" as="offset" />
          </mxGeometry>
        </mxCell>
        <mxCell id="hy1Hl5cKsVYk31SHtU6z-26" value="智能药盒" style="shape=image;verticalLabelPosition=bottom;labelBackgroundColor=default;verticalAlign=top;aspect=fixed;imageAspect=0;image=data:image/jpeg,/9j/4AAQSkZJRgABAQAAAQABAAD/2wBDAAMCAgMCAgMDAwMEAwMEBQgFBQQEBQoHBwYIDAoMDAsKCwsNDhIQDQ4RDgsLEBYQERMUFRUVDA8XGBYUGBIUFRT/2wBDAQMEBAUEBQkFBQkUDQsNFBQUFBQUFBQUFBQUFBQUFBQUFBQUFBQUFBQUFBQUFBQUFBQUFBQUFBQUFBQUFBQUFBT/wAARCAHUAbkDASIAAhEBAxEB/8QAHwAAAQUBAQEBAQEAAAAAAAAAAAECAwQFBgcICQoL/8QAtRAAAgEDAwIEAwUFBAQAAAF9AQIDAAQRBRIhMUEGE1FhByJxFDKBkaEII0KxwRVS0fAkM2JyggkKFhcYGRolJicoKSo0NTY3ODk6Q0RFRkdISUpTVFVWV1hZWmNkZWZnaGlqc3R1dnd4eXqDhIWGh4iJipKTlJWWl5iZmqKjpKWmp6ipqrKztLW2t7i5usLDxMXGx8jJytLT1NXW19jZ2uHi4+Tl5ufo6erx8vP09fb3+Pn6/8QAHwEAAwEBAQEBAQEBAQAAAAAAAAECAwQFBgcICQoL/8QAtREAAgECBAQDBAcFBAQAAQJ3AAECAxEEBSExBhJBUQdhcRMiMoEIFEKRobHBCSMzUvAVYnLRChYkNOEl8RcYGRomJygpKjU2Nzg5OkNERUZHSElKU1RVVldYWVpjZGVmZ2hpanN0dXZ3eHl6goOEhYaHiImKkpOUlZaXmJmaoqOkpaanqKmqsrO0tba3uLm6wsPExcbHyMnK0tPU1dbX2Nna4uPk5ebn6Onq8vP09fb3+Pn6/9oADAMBAAIRAxEAPwD83f7Bsf8Anh/4+3+NH9g2P/PD/wAfb/Gr9FAGb/YNj/zw/wDH2/xo/sGx/wCeH/j7f41fzSE8UAZ/9h2P/PH/AMfb/Gj+w7H/AJ4/+Pt/jV00lAFP+w7H/nj/AOPt/jR/Ydjj/U/+Pt/jVyjsaAKB0Sxx/qf/AB9v8aiOj2X/ADy/8fP+NaBIxURoApf2RZ/88v8Ax4/40n9kWf8Azy/8eP8AjVr1ooAq/wBkWf8Azy/8eP8AjR/ZFn/zy/8AHj/jVqigCn/ZVp/zy/8AHj/jR/ZVp/zy/wDHj/jVmigCt/ZVp/zy/wDHj/jSHSrT/nl/48f8atU0mgCqdMtf+ef/AI8f8aT+zLX/AJ5/+PH/ABqwaaTQBD/Ztr/zy/8AHj/jSHTrX/nn/wCPH/GpqQ0AQ/2fbf8APP8A8eP+NJ/Z9uOkf6mpqKAIPsUI6LTfskQ/hqamUARfZosfdFJ5Ef8AdFSEUhAoAj+zx/3RR9mj/uinZozQA37NH/dFH2aP+6KXdRu+tACfZo/7oo+zR/3RS7vrRu+tACfZo/7oo+zR/wB0Uu760bqAHfZo/wC6KPs0f90Uu6jd9aAE+zR/3RR9mj/uil3fWjd9aAE+zR/3RR9mj/uil3fWjd9aAE+zR/3RR9mj/uil3fWjd9aAE+zR/wB0UfZo/wC6KUNmlzQA37NH/dFAtYz/AA08NSq3NAE1vp9s3WHP/AzWjb6HYyDmH/x81Rgk4rStZ8YoA0LfwzpMh5swf+Bt/jWnbeDtEb72nA/9tJP/AIqq9lJW3az4wM0AJb+A/Dj/AHtNH/f6T/4qtCL4eeGmH/IMX/v9J/8AFVJbMM1qwPxQBmp8NfDTf8wxf+/0n/xVP/4Vj4a/6Bi/9/pP/iq3IZKl832/SgDxqk7UtIehoAYTSZoNJQAUUUUAJupGPFFNJoAjZqbSmkoAQ9KbTj0ptABRRRQAyiiigBCetNPSlppNADSabS5600mgBaQmkpCaAFpD0ptBzigAplIaUDigApD0paD0NAEZpKU0lADKKKsWGn3Wq3kVpZW015dSnbHBbxl3c+gUZJoAr0V9R/CT/gm98avijHBdz6CvhLSZcEXmuP5TFfVY/vGvrz4df8Ef/A+lWsT+NfFeqa/eDBaPTwtrDn0/iYj8aAPygor9bPGf/BIb4a6jYTr4a8Ra7o1//wAsnupFuIR/vLtBr5C+LH/BNH4x/DY3E2madB4105MnztHf98R/1xb5vyoA+U6Ktato2o+H7+Sy1TT7nTLyM4e2vIWikX6huaqA5oAWiiigAoopVGaAADNLtpaKACiiigAooooAkibBrQtn/SsteDV62figDorGTgVtW7dK5uwk4xW7avlaANm1kOa1rd+KxLWQZrWt5BigDUgbipt3vVSBhip8j1NAHkZ6U2nHpTaAG+tJS+tJQA/saZS00mgCOmk5pTTc0AMPQ0i9aUng00HBoAPWiiigAopN1G6gBtB6Gk3UZ4oAYaYTzTz3ph6mgBBzmkNC96DQAlNNOpCKAG0UUUAMPQ02nHoabQAUUUUAFIehrW8NeEtd8Z6iun+H9Hvtavm6W9hA0r/kK+r/AIT/APBLH4ueOvKuPEpsvBGntgk3refcY9oY+/szCgD41r9ff+CaH7KkXwv+H8PxH8Q2Ef8Awl3iGFXslmT95YWf8JHo0n3v93bVr4Z/8E3Pgd8GoYtS8YX8vivUYiHZtamWG2B/2YV+99GzXt3iP9prw7pVuLPQbOTVfKG1Ng8uEfj1P4UAevdzWXrni3RvDUPm6pqtrYR+sz4r5f8AHX7QPij7PPJqerab4LsGHCPIEkA9t3zNXlOi6hq3xIuJovB3hPXPHl3/ANBCRGgsf97zD8x/SgD6c8T/ALU+i2MjW2gWNzrUvRZtpjiP9cfhXld58W/H3xBvbq0tNUi01YoWneCy++sa/eO4cmtDwr+xP8RvFsazeMfFVl4Ts3XDafocO+U/7z+tc18Uvg0/7MfhfUl0vULzWm1ydbS4vpo9jwxehHv60Acr8T/gZqfxD8KNqmtpH4v0qZcrqSMsrxfj94V+c3xb+F138LvE8tg7NcWL/PbXJXAZTnj6iv1x/Y+8VyXI1rw3cy+dbIFmQFvl2nqtfMH/AAUd+FVn4as9QaOHbHZXKT2rAfdRx8y5oJUj896KKKCgpVOKSigB9FNBxS7qAFooooAKKKKAEzirNu+OKrEcU+FsGgDbspcNW9Zy8VzFs+CK3LKXigDetnwRWtbvkVhWr5rUtZKANm2fFWd9UIHqz5nvQB5eelNpx6U2gBvrSUvrSUAFNpSaYTxQBHnrTc0p6UlADKT+KlpP4qAFooooAZRRRQA2iiigBlNPU06mkcmgBq96DQp60hoAKKKKACkyKnsbC61S7S1srWe8uZPuw28TSOfwANfQ3ws/4J7fGX4meVdTaCvhTSH5N9rz+RhfUR43H8qAPnAj3qzouj3/AIj1BbDSLG51S9b7tvZwtK5+gUE1+l/w+/4Jy/B/wMIrrx14m1Dx7qK4L2OnL9ntSf8A0I/8CavpnwBpVh4JsDa/DnwJpXhaxj486G3Qufd3/wDsqAPzZ+E//BMv4z/EkR3Oq6ZD4J0xwGE+sviZlPdYV+b/AL6219gfDP8A4JbfCD4cxw3/AMQNauPElzFgyJdzfY7Mn/dX5iv1avQvHvxR8U6Xmzh1yO41OX7kVm4byf8AaJWvBr/4or4lvTZ20WufELxCfkKwgmNT/vf/ABK07EOSR9Rab8Vfhl8K7A6R4B8PW/loNgi0e1W3hP8AvSEfN9a4nxp+0J4oubKW5m1Cx8FaTnl5GVXx/vE7mP8AurXJ+F/2cfjf8Sgv29tL+GejyDhR+9vdvuoOc/Vlr3DwD+wV8OPDl4upeIlvvHGrggm61qcspP8AuDir5TD2tz5Vg8cy+O9cNn4V0TxH8SdaZsfaI4ZEgA9WeT+H/vmvXvCf7JXxi8Yqkmv6/p3w40tuWsdFVbi+2/3fO/h/4C1famh+H9O8P2SWmlafbadaoAFhtYljUD6AVrRjA5p8tjWF3qfPnw8/YZ+GPgqZb+90iTxbrPBa/wDEUxuNx9fL+7Xv1hYQadaJbW8UVvAgwsUKBEUewFTetGTSsaLQaye1fMf7aVv5nw81tv7i27f+PGvqCvlz9tS4KeBdajHRltx/4+aTQPY8S/Y8j/4rzVj/ANOcX8zXK/8ABUs/8U9qg/6cbYf+RDXafseIP+E31k+lpD/6Ea4r/gqV/wAgLVx/062w/wDIhqDCL1PytopMilBzQdAUUUUAFFFFABShqSigBwNLTKM0APpEOCaBzSHrQBftn4rYsZeKwLd8HrWrZvg0AdHZSZrVt3wawLCTmtmFsrmgDbgfip/M96oWr8VYyaAPOz0ptOPSm0AN9aKPWk7GgBpPFNJ4NKaaehoAYelNp9JQA2iiigBlFFFABTS3FKaaehoAaTSZFIaSgB9HY0gILBQcueg9a9l+E/7HPxe+Msqv4f8AB19FpjDcNU1NPsltj2d8bv8AgO6gDxTOM0+GJ7iRYolaWVuiIMsfwFfoj4d/4Jg+EPhzYQ6p8Y/H0khlAKaLoUW2SQ/3VZvmb8Fr3H4b2Xgb4df6J8JfhVaWl6ox/bOpW/2m6f8A2t/3s/8AAqAPz4+E/wCwZ8Z/i0sV1aeFJNC0mTB/tPXT9li2/wB7DfMw/wCA19MeCP8AgnB8LvApE/xK8fTeJ71PvaN4dPlRg+jSfe/9Br6d16z8Ua1Gbjxz4xTRrRufsAlAYj0EUf8A7NmsFPEHhPw+hTQ9DuNcnH/LxqA2xE+vljlqCHJR3NP4dWHh7wfANP8AhR8L9P8AD6qMG/eDzrj/AHix+b8zWvrZljkMvjPxkhk6/Y4m8yUe20fdqpY6J8T/AIiw/Zg76HpB42QKLWMD/wBCNdZ4Z/Zf0myO/WNRn1GU8t5Q4z/vH5q1VO5yyxcI6I4A/EfTrCQQeGfDrX9x0S5v/wB62fVY16fjW1p/wz+JfxMlX+2dTbS7CUZSJm8qMD/cXk/jXv3h7wno3haARaVp1vaAdXRBub6nrW7buTcxgnPNbuCUTgljHJ2ueYeGP2UPCWl25bWHm1mV8F0UmGMn6LgmvTfCPgrQvBFgtloOj2ekWw/gs4VjB+uBW4BzT1HFYNFqo2hRRRRQK5btxwalxiorf7pqWg9Wl8AUUUVmUFfKv7a//Imal/tS26f+PGvqsV8pfts/8iffD/p5tv61RT2PMv2OrfPjHXG9LeBf/HjXmf8AwVRuNmkauuf+WVov/j5r1v8AY2i/4qnxC3pHCP514t/wVZfGn6sP9q0H6k1Bzrdn5g5oBzSUUGyJAeKWowRilyKCx9FMyKAaAH0Ug6UtABRRRQAUUUUAPjOGrWsHG6sdetXrN8GgDo7aUCtW2n461ztrJnvWxaNkdaAOgtpeKs+bWdbHirOaAOHLcU3dQTxSUAJu60hbg0lIehoAaWppalNMPWgA3UbqSigBN1G6m0UAFFFd58M/2f8A4ifGK6Mfg/wpqerRD715HEUtk/3pG+WgDg8im1+gHwt/4JHeIdS8m8+IXiy20WI4LWGjx+fN9N5+Uf8Aj1fWPgT9lP4Afs728V3LolhcanHg/b/EEhvbpz6rG3yr/wABWgD8n/hl+y58U/i9LGPDHg2/ubZzj7ddIbe3X6uwxX2P8JP+CQdzceTd/EbxlHbKcM2l6BHvf3DTN/7KtfWmuftOWVtF9k8N6JJdrGNqSTgRxKP9lB2/KvL/ABp8V/FOrhl8S+J49Csm/wCXK2/dNj6L8xp2MudHd+EPgj+z3+zbApsNC0ddTjH/AB8XwF7esfXB5U1f1/8Aadnvo2g8N6EzKows9+wVB/uxr/Vq8A8PXF74muzD4N8Jah4huicG8uUKwg+pP/2Qr0zw9+yn458XqsnjDxImiWTctp+mBc49Mr8v/oVVGNzmniVA8vmHiTVfiEnibxQ//CQODkW8zMif7q88D/dr13RR8Q/GEHkaLaroVg3GLKHyFx7ydWr27wP8GPDvgGxWCzjuNSlHPn6jN5zZ9t3T8K7aGNI0wIwuPatfZHG8Y+h4V4b/AGZI2mF14g1OW6nPLJAScn3dv/rV6v4e+H+geF0AsNPgicf8tNu9z/wI/wBK3T1pV71rGCRwVK0qm7FooordI5LsKltP+PqH61FUtp/x9Q/WonsEdzoAMUUUVzHrLYKKKUcmgstW/wB01LUdv9w1JWNz1qXwBRRRUlICeDXyZ+21Ljwtcr/evLda+sm/1betfIn7bT58OkeuowD9Ksp7HNfsbxf8TzxIfaMV8/f8FXZM290PW8tV/wDHWr6N/Y2jzqviJveP+VfNH/BVp8x3A/6iNuv/AI4ag51uz82ttG2nbaNtB0oZijFOooAbigcU6igADYpd9M9aKAH76N9MooAeGzTqjXoaeOlACjirFvJtNVs1JGcUAbVs/NbVlJxXO2j7lFbNk/SgDoIJeKsed71nQNxU+6gDlM0lJkUZFADaKKdHE8zhI0aRz0VRkmgCM11PgL4VeMvijqC2PhDw1qPiC5bj/RIGaNf958bV/E193/sef8EzIdVsbLxf8X4ZEglQTWfhmNsNt7NcN+f7sf8AAq/RTw54b0jwfpMOl6DpFto+nQqFSC1gEQAHrtoA/LT4Tf8ABJ7x94i8m78c65ZeFLZsM1lB/pNyR6ZX92pr7B+GP/BOb4KeALaJrzQZPFWopgm51uUupI7hFwor6bqtf6naaVbtPe3UVpAvWSVsAUAeaH9lP4Okf8k08NH/ALcRUR/ZL+DRJz8MfDP/AIBCneJP2lfB2hNJDa3MutXK8eXYoWGfcivKtf8Aj9428RM66VDDodg3AlX/AFmP+uh+UUEt2PQbv9mv4D+Epo7+78BeFtMkjbeslxCq4PrhqTX/ANpPwx4agXTvD1o1+EGyMQRCG3T9efw4r5s1XX7TU9QZbzU9Q8T6qT8ttYobhz/wJuK73wh8GPin4ujVNP0K18E6Z/DeakBJcMPXb/8AYrVRVzF1bF7xX8YfGfiKCSS51KLwvpfco4QY/wB9vm/75rzKLXLDWb8waNYap441Rjgm2RsE/wC+3zGvp3wb+xb4Zsp0vfF2oX3jK/HObpykQPpt9K9z0Hwfo/he1W20fS7TTIFGAltEEH4+v41uoJHPKrJnyB4U/Z0+KnjOMG9u7HwBpb9YrdfMuivuV7/Vq9j8Efsb/D7wnMl3fQXHinUgctcao+5CfXy/u17kKUVPKZNuxhTaPb6RZQ2mnwwWNsvAggXYAv8AurUA9q1Na/1NYyNxVxPOqD6cOlM3Ubq6EcYtFFFMgKKKMiq2AOlPgmSKRWd1X0JNNtrY3x9Ix/49WlHpsCr80aH6jNYSqRW57+Hy5tXkW7e4SVQQ4YeoNTg5rBntjpzebFxH/EK2bfoazTuaVqXso6EtKvWkpV60HLTLdv8Ac/z71JUdv9z/AD71JXM9z2KXwBRRRSGgr4+/bY50CP8A7Ccf/oLV9g18eftrkHSYo/XU1/8AQTVlPYp/saJ/pPiRu/mxr/47Xyp/wVZkzd49dWX9IWr6w/Y0HyeIn9blP0Wvkb/gqs/+nQ++sEf+QTUHOt2fnvgUYFLRQdKGYopcGjBoASjFLg0BTQAzbRsqQLS7PagCLZSbKl20BKAIulKRxUnle1HlE0AQA1KjYJqSO0Z6uQ6WzdjQAlk4ArZtZQBUNtoxAq/HpZUZoAv2rbhVuqNkCPwq9g0Achuo3UlFACg5Br77/wCCYH7KkfjDV3+LXiW2SbSdMuDDotrIMLc3Cj5pWHdV7f7X+7XwZpdhPq2o2lhap5l1dzJbwoP4nY4Ar+gb4O/D+y+FPw18OeErCNY4dJsYrd8fxyhf3j/i2aAOx6UjMcYzQGya81+NvxbPw08MbrPZLq+o5gtEYcIO7mgDP+LPx6tPAztpWkouq66RwiHMcP8Avn+9/s18weMfFlzf3rS+M/EUt3cnn+zoRvIH93Yvyj/gVewfCj9njW/GtrNq+rXc+kxXHzveId12+evl+n+9/wB819BeBP2ePA/gHDaboMElyDuN7ffv52b+9uboaAPjfwR8NfG/jrY/hjwa2lWZ+7q2vj5QPVQRj/x1q9q8KfsT2+oyR3XjrxXe+Ipl5+x2pMNuvtnrj6Yr6lFvhWXPBpYoBF0oE1c5Lwx8M/DPgOzS30HRLPTVUY3QxAO3uW6k1txjYTVy4+8ar4xW1NnmVHZ2An5aTd8uKD0pK3Mxw6UopB0orNlGdrTfuwKyoozJwtbmpQebAT3FZ0ZhtYDLNLHbD/po+2mjinHWxWMW0MzkIi8lj2qQWhKBwwdGG5WXowqS/t4dYtpofNzbSps3x/3e9UdY8LxX9xayy6hcRWluiulnbv5S8evqtaRkY+yb2JcYJoooroWxxP4hFHU0kURmm8sdKWVvJj3+vStDRYAUMh5JrCo/dPWwGH+2aFnaLbw49KiORIasyuUGKq55zXnM+ppla+kIt5wem3irOlMfsUTMP4MVmarIrDbuxzzV2y1W1MaRB8bRitqZw4taWNDrQvWihetbHlWsXrf7n+fepKjt/uf596krme56tL4AooopFIK+OP21GzBZ++pj/wBBavsevjD9s5swaf76mf8A0Fqsp7Fr9jOP/Qdbb1uyP/Ha+Nf+CqEm/WLAZ5/tab9I6+1v2NowND1hv+n3+i18Pf8ABUWTf4k05f8AqKXP/oIqDnW7PhLZRsqTbRtoNkR7KNlSbRRgUFoj2UoUU/ApQKAGBOKXZTwBilC57UAQ7KcsZNWYYNx6Vft7Hd2oAzI7dmPSrtvpxftWzb6WvpWra6eo7UAYdtpPtWpb6YAPu1t29gPSr8VgMdKAMe103PatS20te61q2mnjHStCKxGOlAGZDo8Lj5kzUn9gW/8Azy/St+2sMrVn+zz6igD5xM4qI3FRHoajIoA9R/Zms4NZ/aI+G9pcDdDJrtqGHr84r98FumDOS3U/1NfgB+zrqY0b48eAb5uFg1q1Y/8Af1RX71z3JFAGutyT0NfLolHxh+PsKS5k0uGYW0GOm1Tx/wCgs1e4+KdebRvC2s3ynLW9pJIv1ANfOn7N2o/2f8VvBkcvTULu4R/94W8m39TQB952drFaQxwxLsijQIqjoAKsjimoODTqAFzSUUUAQ3HeqtXLgdaqVvBHmV17wlFFFbHOFFFFSaUynrOoRaXpV1dznEUEZkb6CvkTxh4vvPGGrzXlxIY4t/7mJD8qLX1H8RbCfUvBWsW1t/r5LZwv5c/pXyD9nmx5P/LT/wAer1cvhBuUp9D8v41rYqMqNKj8L3+892+AF1qB0ma0u5CtnIR9j8z73+0or1KfT4YLg3f2XN1s2faP9n0rwzTvN/4W/wCH9P8A9VFp8MKeX/D9zJr323uPtAOenvXNiYqNVtdT6bh6q5YT2UviirGVRUt0Atw4HSokVpZFRF3FuOKyT0PRp0+efKT6bZnUJ8v/AKlf1q8LCawuMxS/6N/zzq7ZWotY9gqYjIIrmbufWUqapR5YmYmoJdsZEGCfvL6USSCNCc0y/wBJZmM1s3lzenZqzJr86h+5li8qX+MVjy3OqNSMdyxp1ub+/wDN/wCWUf8A6FWxJbRNlWhjb6iktYEsoBHGMY/Wnlj3rRKxw1ZqpJsz7Jmtbv7Kxyh+ZG/pWkDzWNf30P2uHypAZPNTpWuoOat7HG0aFv8Ac/z71JUcH3KkrlO+n8AUUUUIpBXxZ+2f9/Sh/wBRCT+VfadfFP7ZrZvNHHrfTf8AoNUiuh0f7HabfDGpN/evCf0FfBn/AAU9n3+MdJTP3r67f9QK++P2P1x4Quj63Tfzr8+v+Cmr58e6CPWW9b/x8VJzo+MtvFJtFSUm2g6ENAxRT1QmpY4SegoGVwmTUiQk9BVuKzLHpWjbadntQBkw2JY9K0bfS89RWvb6d7Vo2+nHHSgDIttLA7VqW2ngfw1pQaf7VpW9j7UAZUOndeK0rXT/APZrShsfatC3svagCjb2A9Kux2AI6VowWftVyO09qAKFvZY7VeiteOlXILX2q5Ha8dKAKtvbYHSp/s/tV2G2xU3ke1AHxzRiiigDR8L6lJoniTStRiJWW1u4Z1I7FXBH8q/oGs7xb/TbW4X7s0KSD6EZr+epe9fvZ8H9XGvfCbwZqIO77To1rIT6/u1oAteOovP8FeII/wC9ZSj9DXzb8L7n+z/HHw6vs48jX40J9pEZf619UarZpfaZeWzjKzRNGR7EV8g6Xc/2baWtznH2DWtOnz6bZnX/ANmoA/S9OhpaROhpaACiiihAMnGVNUz1NXZBlTVI9TXRDc8+vuJRRRWpyBRRXI/Ezxkvgrw9LdZzdSDZbp/eamY18RDC0pVqmyGeKvHEWkSz2GnmCW7jXzrq4uD+6tY/7zf/ABNch4f8eeCrefzrvUNN/tD/AJ+I7Xyq8m8OeIrYNrEOuvKY9SCl7iM/dIbNbWjfD7w14ng3WmvTpmdbceZag/OfuivQWF5Nah+eTz+tmLX1WKflI2fhpcR+JPjJqGpL+8t1Essef7v3Vr3K4nxnArj/AIc/CGz8AXdxd/a3vp7hNpMiBV610c88mTXJWlzS0Pqspw1bBYK2K+OTuyKRt7E+tXdCUSXzntEuD9aoD3q74efFxer67T/n86ys7HsYK0qup0ZI5PeoiaCcioi2K5z6UZczGOGZh/CKxbGIOs15ONjE7UB9KlvpZr6Rra35J+8asWuhRKA1yftD+/3RWsFpdnNUavYaurm4YrZxtcOOpHAH49KF065uzuupdg/55x/41qLtjXaoCqP4VGBTSeD6UGRlm3js5LS2hjzvkB5P8Na6jms2yBuLyWc/dT5VrQVuaT2OeZdt/uf596kqO3+5/n3qSuU7qfwBRRRQikFfEP7YzH+09D/6/bivt6vhj9sCb7TrWhKvT7VcGqRXQ9A/ZETZ4Gd/W4kP/j1fnL/wUikM/wATdGXrthuD/wCRTX6Pfsmrs+HSt6zSH/x6vza/4KBSC6+LWnJ1xazH/wAimpOdbnyYsZqVICe1aMVkCTxV6HTwe1BsjJgsi3atK2032rVtdM9q1bbTwvbNBZjW2l89K1LfTgB05rShsvar8FjxyKAM23sPatCCx9qvwWgHar0FqPSgChDYe1XoLADtV6G09quxWvtQBQitMdquwWvtVqO29qtw29AEENr7VajtuOlWYrf2qzHB7UAQQ2+B0qzHb1YihqykNAFeKDFS+R9KtRxACn+VQB8NUUuKMUAJX7Y/sWaz/bn7Lnw8uN24x6d9nJ90kZf/AGWvxOr9dv8AgmrrP9p/ssabblstYald22PRd4df/QqAPp6XJ3CvkHX7b7HH4xtgMfZi0v08u4B/9Br6/wCtfLfi7T8eLvGFkV/4+Y5wB67k3f0oA/QDw9drf6Fp90pys1tHID9VBq/XG/BnUP7V+FHhG7zu83TIDn/gArsqACiiigBD901SP+sNXT901SP+sNbw3ODELqNooorY4wr52+KmpSePPiJDolvPstrT5WYdN23J/lX0DqExgtJXBwQhavnv4KWp1/xZ4l1ZvmzGy592Y/4V24VJNzfQ+Tz6cq0YYKH29fkrnlNeheEIDafD2W7iO2b+2YCGFefzp5csi/3WIr3D9n2a3n8N6razosrRzCVVYZx717WNmvYto/MOGqMVmMqKdnqerT3EuME8VXzmmtcFz1pBXzMNT9m5m/iYMuMmmJI1vIJU6jqPWpQcjFRsuDW9i6VT2c+Y1ItehdfmzGaqT6w0wZIBlT1c9qqbR6ClAC9Bj6VnynfLHNq0SbSpTbXRXdnzB1PrXQZrmSKlhuLyLIDRsvq1S4F066krs6DIFZtzeNdyeRb8/wB5vSmw2V3PzLMFHtWja2kdpHtQc9z3NZpHTz3WgWUQigZf9qpR1oA2imZ5pGJoW/3P8+9SVFbH93Uy1zPc9On8AlFV7/VrTTIy9xMsfoM8n8K8f+JH7T/hnwMrRy3kZuAP+PZBvnJ7fKD8v/AqEikeoeKdbXRdMdv+WsoKR/X/ACa/OP45+OD4q8eXCWTG4trP/QrQjnz5GPzMP+BfLmtH4qftN+IvHyXdvaAaPpL5BkLZuHH+9/D/AMBrS/Zo+EVx4n8Q2niTULLytKtmzYxzfL57/wDPT6f3aobeh9LfDnSYvh38KbcS/J9mtdznuXI/xIr8jv2rteHib42arg71sUFt6/N95v1Nfpj+1d8W7H4ZfD26jWQK0EWwoD9+bny4/wDvr5q/Ja6aTVL+5vrpvNurmRppXPJLE5NKxmkYFvpwznbWpb2OF6VpwWK46VdhshjpUmqM2Cy9qvwWWOorQt7HPbAq/DZhR0oGZ0Fp7VoQ2ajqM1aitasx2tAFWO1GeBVuG2HpVmK246VbhtvQUAVorcelXI4BjpViK1q1Hb0AU0t/arEUFWkt/ap44PagCCOGrEcNTxw+1TJDQBFHFVhIutSRxVMkdAEccVP8sVMsdL5f0oA+DNtG2pttG2gCHb71+nH/AASf1n7T8JfGmllubTVxIF9A8K//ABNfmXX3v/wSU1lovEXxI0jd8ktraXW33WRl/wDZjQB+inQc18/eNYRH8VrtMf8AHxCv6xstfQFxxHxXiPxDh2fE7T5P79un6M1AH0R+y3qH9ofAvwxk5MEclufbZIy/0r1SvE/2Q5NnwqurQnmz1i8hx6DzN3/s1e2UAFFFFADfWqcn3zVz1qpIPnNbQOTELQZR2NFFdB5lzl/GmpXJ0+fT7OKOS4ureRVaV9qrjufzryT4cXcXwsuWGr6rp8Md4w+0W6HfIu0HHSvNPEviHUdW1zUDdX09yqzMEEjZCrnoPyrGeIsTzmvbo4J+xc+Y/IMbxP7XHRcIe9F2R13j/wAJvoGqSXUfzWF63nW7joQ2T/Ws/wAF+Lbjwd4is9QiJMO7ZcR9mSvVfjlp62vgzw8wHMZSIfQR/wD1q8OrspctejZnzubqeVZm6lJ2b977z66iliuoYri3YPBMokRh3BqVe9ef/A3xEdZ8Iz2EzZutNfac9Sh+7Xf4NfOSpunNxZ+vYTELF4eFePVDqKKKZ2BRRRQgQUq9RSUCtOhqjorfmEH2FOHU0y3P7gc9qevU1zPc9mLVkIaTGaxPEHjPS/D1u8tzcp8vYHgfU188/EL9ry1sy9popN9L032/yx/99/xf8BrMSPpu78QWOkQt9omVWAztXBavE/iP+1n4f8KNLaWd19tvV4+zWeJH/Fugr5I8d/GHXvFCuNU1k2dix4tomMat7FupNVfA3wj8X/EEb9I0n+zNOP8AzEL5dqt7qvVvrWdjqVTQ6H4h/tG+KPFwlVrpdA098/LG/wC8ce8h61xfhX4c+J/iHdf8SPSLieOQ5a/u1KQn33d6+lvA37KXhTwisereKbltbvlwyyXfyxqf9mKu/wBa+J2l+FdPEFkkdsFGE3KAXH/TOIUrFqbPL/Af7Iml6BHHqvjK/XUrtcN5Q+S2iPoB1au+8Z/FLQ/h14XlnjmjsbSEYa6J2ge0aj7xrHuF8V+M83l3F/wj+nNz9t1M/v3X/pnD2/4FWfHonhTRrmO5OnHxNq8Ryl9q37xY/wDcX7q/hQWpHwv8XNZ8d/tCeIhPpfhrW7jQrZz9ljW1kbf1+dveuT/4Z6+IkH+t8EayP+3Rq/Sf/hMNWmJzOIV/55267FH5VrWGt3brukuGYn+82aA57H5S6n4J1rQGYajo1/p204P2m2ZAPzqC3gAXpX6/wPDqdv5V3BFcxnqskYNeVfEX9j/wD47hlnsLIeHNTbLC4sF2qx/2k6GlYtVF1Pzghg56Veitc9q9k+JP7LXjf4aNLcfYv7c0pTkXliu4gerJ1FeWqAOP+Wn/ADz/AIqRomnsQRWoHarKW4A6VZS3x9amSCgZVSH2q1DBU6W9WYofaoAijhqdI6mSKpUioAjSHNTJDipI46mRKAI0iqVY/rUirT1WgBqR+1SrHSqtSKtADQlO2U8Lml2UAfA9FFFABX15/wAEuNZ/s79oDVrAtgalo0ox6mN1b+tfIdfQv/BP7WP7I/aj8JAttW6E9sffdEeP0oA/YG5+4a8p+JsOPE2hS/7Ei/zNerXP3DXn/wATLTzI9FuP+eVxIv8A30v/ANjQB1X7It5+48f2Gf8AUa0JQPZ41P8A7LX0LXzT+yzdfZviH48sScCeCyvAPX5WXNfS1ABRRRQAYqrKMOatVWmHzVpE56y90gqtevssbtv7sbH/AMdqzRXRE8qUeZWPi218Maxqcsj2um3FyzMSdiZzya6/Qvgf4n1GZTLDFYx715mfn8hX1AkEcf3I1X/dGKfiu+WOqpaHwlDhHCQre1m+Znh/7RlwIdJ0K0B43s+PouP615rb+DvtHw+u/EH/AD73Oz/tn/8AtVofGnX28QeOZbaBt8Vpi2jA7tnn9Tj8K9ZtPByWnwrutFYD5rNpX92+9mu+NX6vCKPnamHp5vjsTUktIrlXyPNPgDqn2LxfNZscJfQFcerL0r3nFfMnwvu/svjXRZc4/fbPzr6db7x+tcWKX7y57HC83LL3Tl9ljT0ptOPSm1yn1dgoop0qpbQ+bcTR20X9+Ztq/nQUo3G0+JcsK868dfH7wr4EifNwt3cL0Unac/TvXzj45/ax1/xN5kOmxfZougaXhcf7K/8AxVS3Y6acbPU+vvE3xR0Hwdau97dxb0HILgKPq3b+dfOnxF/a9lufNtvDtubk8jzpMxwr/Vv5V8t6r4zvNc1FILu7utc1OT/Vwp+8c/7qjgV6L4D/AGc/GvjUi41Qp4Z06QcqcS3LL/JPx5qUdXMct4r+Imp+Irjdq+qNdSSH5LVAdrHPRYxzXReCfgZ44+IBRo7L/hHNOfH+kXi5mI9Vj6fnX0n8PPgR4O+G4E0NolxffxX14fMlP4muv1HxpYaUDDBKgY8Ag/5xUmqZxXw9/Zf8HeBZEvr+M6tqa4Pn37eYQf8AZXoK9I1DxfpehRCKLy7cLwOOn0FeW6l47vdWmdLbdj1BwKxDp73TF7uZj/sL0qGjog7HT6zrcXjbV2EerrpEKJl7kR+Yzr/dX+ENUNpd6F4WZm0PT2uL8/e1PUm86Yn1XP3fwrGgtwo2xIPrV6PTR1c/hSsakNxeXeqzF55GlY+p4FPhsyB8/wCVWVCwAgDiqlxqIXIFFjRFgQog4qzE4AxurGeSZl4Jp9uJnzyaRB1umak8JGDkV01prKzqARtauCsPOHA7etbNpckMFfg0FHcxOlxEQwDqeoPINeYfEb9nLwZ8Q0ke50xLO9bpdWo2Nn8OtdXBeyx8q2RWtZ6wmMSCgL2Ph34i/sn+J/BzS3GmA65YLyPKG2UD3X/CvH57aWxuGhmieKVTho5Bgiv1Pae3dDkgg9jXm3xB+FvhbxvE32/T4jOR8twg2yp+I/rUNGsZPqfn7GtW44+K9m8cfsxavopkuNCmXV7Yc+SflmUfyavKLrT7jS7h7e6gkt5kOGjlUqw/Cs7G6dyqkRNTLEBTlBPFSrF60hkSrnoKnSLilRMVMq8UAMWPrTwnFPVetLgUAIEp6rgGlAFGc9KAEUU6jpRQB8CUUAZpyrzQAmDXpn7Mes/2B+0D4Avd20Jq0Kk+zNt/rXm+K1vB2of2N4w0LUMlfst/bzZHbbIpzQB+9dx/qzXEfEdN2gK//PK4RvzyP612Yk86yhkHR0VvzFcp4/h83wpqPqgV/wAmBoApfs73Jg+NMyjAF5oPzY7mObaP0NfVdfIXwcvPsPxg8JPnH2iC8tT74UOK+vaCU7hRRRQULVecc1YNQXHStImVRe6yrRRRXQjy0FcL8WPG3/CIeG7l4mxeXC+VAB2b1ruq4X4n/DdfiBb2cf2r7HJbsxWTbu64/wAK0hbmXNsebmMcQ8LNYZ+8zxH4OeD5vFnidb+4Be0tX82Rm53tX0hNjz+TioPB3gyz8G6LFY2vzhQN0h6sam1Jds4x6V0VantJXPJyrK1l2E9nLWUt/wBThfC3wn0TwhrX9pwM91OWJj8z+Cuw7U3vVLWvEui+G4PN1LU40H/POPlhWbnfc7aWGp4ePJSjZFxSzHagL/TrUeoXFnpcRkv7yO0UDu3zflXzz8RP2wdP0jfa6BEZ3PAeP7/4npXzj44+M3iDxSzzXd61tG3O1GP6tSudMYo+s/iB+0/4e8HrJBpeLq76bz8zZ/pXzT8QP2ivE3jCSQLctYQt2Dbzj+leV+H9O1vxhcGHwzpUmo/37iP93Anu0hr2jwT+ydLeol54y1fzomwfsFkfLj+jP95vwoKseMwX99rt8bfS7S613U2OCIB5hU/7TdFr1PwT+y/4j8SlbnxVfjSbM8mysmxLj/akP/ste9aNp/hj4c6eI9Fs7W2hQYLqBGi/7zdW/GqsnijWPFkxi0fTpL5O9y5NtZr9Gb7/APwGoGS+EPBHgr4XQeXpGmQm5A+aYLvkb3ZzU138Qb/xBO1jocT37fxiw+SFP9+X/wBlqlP4TsIisniLVZdbnByNOtjstYz6YH3vxqzLrU7wi2s400+1UYWKFQMD8OlBrFEWr6pq1rFFaSHbJs/eDfvrHjty7b5m3N6Vf+yl2JJLE9zT0sgO+TQaLQoyyygYgGPoK7LQPAjavb5t9RSef+7JxXNNEFziuo8O6NqckCzIfsnH8f3qRpEpXmkXelTeVPZurdiBwa1NN8MXV6oeb9zGe/eurs/EdxbfudUgWWPp5hHNayWlrfwmXTpg57xk9KxOqmco3hizttPkjKeY3/PVn3V52dKIkIw559K9jnsZkiZZFAz2rhRb5NUdNitY6UPs/wB3tU8FiEB4rbsbdRbGoTEBnFBBVt7dV7CrC2scn3hzU8Fm0o4rX03w1dah8trA9w/9/GI/++qAMZLV1U+WRt9a0NJ0O71JiIIWkUdX6KPxrfvbDQPC8Xm6rci8uVGRAjYQH+tcbr/xS1HUVa205Fs7QcAINvFBkTXF/DYA+bLXOan4kkl3LbDYv98/4VlOXmkaWZzLKerNTMUjWIyz12TS9XjmZjL5ow+Rmur1jwV4X8d25i1OwglcjhyvzL9D1Fef3Py3KEeprqvDurPaqN+cVkao8y8cfsf3cYkufCN8Lleosrw7W+iuP614N4g8L6v4Sv3sdZ06ewuFONs6bd3uvY1+hmkaqssa4bg1p6joWl+KbFrTVrC31C3YYKTxhvy9KVjRH5oADFLX1r8Q/wBjWxvxNd+Eb37FKcn7DdHdGfZW6rXzj4x+GXiLwHctHrulz2Sg4EoG6OT/AHW+7RYo5xR1p1NXvTqzASloooAVRxS4FA6UUAfAyinKtAGakUUAJjFJin4pu2gD93fh/qg134b+F9RB3fatLtps+uYlNHiaD7RoOoxn+KBq4T9kbVv7c/Zi+Hd0TuI0tYSfdHZP/Za9I1CMS280Z5DoVNAnseWeAbn7F8QfAV9nAXU2hJ9pIStfatfCqzfYI9Auun2bV7STPp+82/1r7qoM4BRRRQaiGoZ/u1Mahn+7VxM6nwsrUUUV0o8pBTMVHd3sFjHvnlSJfVzivOfHHx58O+D7R5Z7qKMj7vmvgt/ur1NWhOx6W8gjjJLKFHUsdoFcJ4y+KvhvwfA8t/dpJt7E7V/OvlX4iftbarrRlg0SB7dDkfaLnp/wEV89eJfGFxrN202qajNf3LH/AFZYtz6BBSMnM+mfiB+2RJfrNaeHLcsnI8xPkQfVupr508ZfEnVteZpda1KZ4mOfJSUon59TWp4O+Dnjnx9Gv2XTl8P6Y4yLu/XLuPVY/wD4rivb/B/7MPhTwdNHfa1K2takmCJb879p/wBmP7q0IxaPnHwn4O8WeP2A0TSGisif+P29UxRp7qv3mr3TwV+yto+lompeL7o6/crg+RMdlqv+7H/F/wACr1TWfGuleHUCR+VZDG1GkGZX9lUcmsm1g8R+JmM3knQtPbkXuo8zEeqRdv8AgVTcqxpPr2g+EbAR20Vtp1pGNq5ARQPQev4Vn2+oeIPGGZdPtJIrT/oIahuigX/rnH94/wDjtJY6VoOiXC3SRSa9qadNQ1Ft+0/7K/dX/gIqXU9fuNRRI5CZyW/1I+7+VaJisRweHdB064F1q9xN4o1NDlRKQtujeojHyirOo65e6ogidhb2w4WGEbVA9KgOm3YYmaHYlTRwJGOlWFhkNvvFWktVTrUkKyyjEUWa1LbR2b5pm/4CKysF7GUF4IFTW+jy3J/efuR/481dDb2Ecf3EGfU1cS2x96qM+Yh0HQ7WyjyIVaX/AJ6P8zVvxKFwAKNKtdytx6VoC0rJHqUYWV2V2RZE2uoYehFZ8mkmKTzbSVoX64B4rba2I7U0RbefSnob8qKlr4hkixDqMW4dPMA5qnqHh+G4HnWEuR/zzrRu7Vr63lCAcVW0XS5F+aAyXh/jESfu0/H+KiwJtGfBY3EcZVojn2qeHTI4vmmP4VLqOriwB82URVx+qeL2csttkesj9fwosNO51FxqdtYqclUA9ayNR+KOoSWv2WxlaCH2XbXDS37XLFpLgyn1Y5NNWUHvxRYZZubuS6laSaQyOeSSaYOaQeVjnrUM2oJCCAPxqJIViwMKCWOKzb7UggISoJb55s88VRlBbPesRlZ9Rm87OM4NbWm64ej8VlwWxkY8Vbh03LVRZ2uk6pIgBjc/TNdnoniyWIbZjxXl+n29xAwIziuns7jeoDDBoJuet6ZfxX8QcHOavXemWurWb217bxXts4w0Uyhgfzry2xneE7o5GQ+xxXonhXUbm7tGE6/Ko+Vz1ag0TPD/AIn/ALHmj6551/4Rm/se8OWNlJzAx9F7rXyNr2gX/hrVbjTdSt3truBtro4x+I9q/UQHdmvlr9tfw/p/9n6HrKhE1Pz2tWYD5pI9pYfgKVjVHyhilA9aN1GazGLRSbqN1AHwYozT1FAWnqKAExTdtSU3FAH6zf8ABPPWjqn7LujW7tl7C+ubb6DzNwH5NX0FddG+lfIn/BL/AFf7V8H/ABRpxbmz1cSBfQPGP8K+u7nnNAnseLeL4/s3hvUsDBtJUkHtsmDV9vaRcfa9Ls5w27zIUbPrkV8Z+MbTzdN8R22PvRSnH4Zr6z+Gt39v+H3hu4/56adbt/5DFBnA6Oiiig1ENQz/AHax9a8Z6fowkDyK7R8sc4Vfxr5/+JX7W2m6cs9vpE/9pSjjyrL7v4v/APE1UTGpJWse/ap4h0/R1JurgK39xeWP4V4/8Qf2oND8KB4oLhBMOCIv3jj/AOJ/Gvk/xp8ZPEvjFHW5vm0uyfrb2bEEj/abrXC6Pbah4p1A2nh/TrjVpv8Ap3/1a/7zfdraLPMkepeOv2jvEvip5Etpv7MtzwWzvlI+vQV49ea1Nq1/5SLd65qLn/Vx5lkNe6eC/wBkfWNcKXHi7VDawdTp+n/Ln2Z+/wCFe9eFPhd4W+HdqIdNsLe0wOWVRub3LGtTnsz5U8H/ALM3jbxs6XGpkeG9MfnyV/eXWPfstfQngX9nbwZ8OAk6WKzXo63N1+8kJ+p6V2OoeNbO0RlVjiuC1TxneakWSNdkdAjofF3i2PS7YfYst5Z2eVAmZTn0rlItI17WWafUZ18M2jdWY+fdyf8Aso/8eqlbNcR3QuDId68j2q7LPLdEtI7OT6mqQie1TQfDRLaVpz3d73v7z95K3/fVVrq7utSYyXMzyMezGpYLQtyelSmJBxgE0WFcox2Tv/srUghSE5+6f71WCHPCfN7Ui2hY/vuR6UzD2h2eja/FOgivYt6Hhm9Knu/CNrfqZtNmB77M1haaMrJ9a0rR5bKXzIWx6rTRUailoWLewmtBtaERHpV+3ts9avWHiGO8TyriPPbmrb6csi77dwR/d70lIqxRgtgKs/Ztw6UgjdDg5/Gr1sm5eaBWLWmxhIulXdtV7VcIBVyMcVB61L4CMxgg1HBBJeuUtIzcEdXHCD6ntTL+/wBP08edqMv+ij/l337FZv8A2auP8SfFq6uo2t9IjW3hHGVGKDoSOxv7zSvDkRl1a+Wecci2hO1B/wDFVxeu/Fq6u1a30yMWsHQFRiuFkklvJmnu5WmlbuxzimnqaBNElxcy3crSzSNJI3UsaoXpwnHXFWugzWNe3WHbmgFoO8JaPaW083meZ/33Xa3fgaS5gNxpMn2iP/nmfvVwtjfKX3KcGuw0TxTJYfKjsB7GgDlb+W502UxXMDxSDsw4rPd5LjJdsewr3GDUdG8V2/kajbxsSMZx8w/Gud1z4MSKGuNEnFxH18hvvCsgPM4YiBir9taBh0rTbSJdPlaK6gkiccESJtq1b2ox8o49qzuBBZabv/hAFa1vpEY5I/OprWDYorX07Tri/k8u3jMj+lMspxaaOuQfp0rV07wxNqDDylbH988KK6/RfAwjCvdnzpu0a/dH1rq7bTYLNB54wB0jj4UUAc1oPgmC2IYp9ol7s3QV0k0EVp8u5Vx2FZfjPx9ovgnSWvtWvrfSrFc/PK+Hb2Vf4jXxp8Wv27bm9M+n+BbM2cRyh1i8/wBYf9qNO340FJH1T8Rvi14Z+FunTXWvanHaOq/JbA5mlPYKv9a+C/i98eL74xeJzfNG1jo9rmKytCfurnlm/wBputeSaxrV/wCINRlvtTvJ9SvZTl7m6cux+men4VSvdUjsSqnuKDVHYf2mpzyKUaivrXELryY4NTx64prIZ2Ivge9L9sFcrFrQNS/2zQB8hCpF6VFT0OBQA7FJtpQc08HNAH2l/wAExvH9ro/jDxd4XuZ1jk1W1juLVD/E8bYbH4EV+hxbeDX4ZeFvE2qeCvEVjrui3LWmpWUgkjkU/mD7Gv0k+A37YOm/EmwggvZltdbRAs9qzYy399fVfWgD2jxJF/xN9Wj7NAW/NTXqX7LnxM03WfhRpemXF2kep6SjWs8UjfNtVjtP5Yryq91OPVr0yJIj7ol5SvnrVra68L+Iby0ilktJY5G/1b4bb2oMVoz9EfEXxa0fw/aSTTXMMCD/AJbXL7F/+vXzx8Qf2vIJXkh0KCXUpAcGaUGKEfTua+W9b8SC5ud2pahLezEgL50jSMT7IK6bwf8AB/xr8QSsljpzaPpzdb7Ucg49VSgu7ZB4y+J+teKA02s6vttM/wDHsj7IR+FZ3hjwl4j8fTJD4a0KWSBjj7bdIYrce4P3j+FfTfgn9lHwn4UKajr8v9t3yYb7Rf8A+rQ/7MfQV6Jd+LNI8LafiwihWFOPPkAjhH0/+tQctSB4t4I/Y2tlVLvxtqcuquMMbSM+VbL9R/F+Ne3eHrLw74csnsNGt4oYbZQBHBEFU1wEnjHxD43maHRLG51dQcG6uP3FlH77j978KtW2jxeH/Ol1XXP7Q1aRNn2ezTbAn0rWJzcp02s/EC1s4z5Tq57ba4TUvFGoay7eWWjT+8vWqEemJG+5wWHr2qZ3bbttMI3rjitUTYoiw2EvM5kP+0aei88Cuk0X4eXOqWUcy3zXErfwsMVSutNl0uZ4ZozHIv8AeHWrMWirFZ/LkkAU4KqH5VwfWnLuuOv51ZiQQ9f3h9KDlbK6rIakgtznmrcMLyfwY/CrsFnj+GrOfmZmpA27pViOyDk7q1ILXJ+7mr0VgD1SgWjMq2tfJDBeQavKhB5rRWwUDpTvsgpoqmtXYrK/mduasW9xPbHIY49M1atrDeSAAD6mtGw04OrHyZbgr1Ma/KPqaNDpjBkun3cepx7Xwsg71aSARZAIP0qndXMWnxF5nW2jH944P+Ncrqfj8Qhk09Nx7Sy9PyoOiMLnbz6hBYRF5pFjUd2NcfrPxFA3JYpu/wCmj9PwFef634jmlElzfSyXG3naOfyFZWi39xrtvLNBBOIB94smNtYt3OunFpG3fahLqMjPdTPMx/vVDA4AOOlNhidx0zW/pnha7usGfFrD/wCPNTR0JmQDioJ7tYs13moWdrpGg3YhiQnb1PzNXkN9LLc3PXA4plnRXlzt0gyL1zXMMGnYs3St+dMaMFPrVCG2835R6VmZGfFDsbIrcsJCDT7fStxrXtdHGKogl08nr3rsNB8VXOnH52aQfWuZgsWh6VftbdyelI0R6MNR0fxVAI7qJHkI6H74/GsW++HDRbpdOl82Pr5T9RUmh+DLiaQPO32bvgfeNd7Y2TWMQTLMoH3n6msykcXo/wAPyQJLxsD+4K6+y0yDT4gkMYRR6CpCSCZQ37sdST8teBfGL9sjwv8ADt7nTtIVfEmuR5Xy4HxBGf8AaakUj3XVNYtNCsZb2+uo7O1iGXnnYKqj8etfLXxe/brsNJNxp3giAateLlTqNyMQqf8AZHevlj4kfGzxd8WL5ptf1GT7ODlLGBisKD6d64kYK4AA9jQapG74z8eeIfiHqj6h4i1WbVLgnIEjHbH7KvRa5/FPpMDFBQ2uM8d6m1tqkUSnARMmuyzzXm3j+Uya8/sgFAytFr5Pc1ct9fIPU1zccfFSxxntWYHY2+vZ71Z/t4etcnbxNVjynpAeRleKQDingZp6JkdKAI1QmpViNWIYc9quRWue1AFOG1LVpaZ52mzpcW00lvcIwKSxNgirUNpxx/KrUNmqnpk0AfTXwD/aqXSr+HT/ABbIVVsKt8OV/wCBelfZv/CLeFPHFvaahq2nx6tayJvgvbOYr8v1HWvylgtFXkDvXo3w5+MnjX4cR/ZtA1ua3ss5NnMfMh/BT0/CgVj9MfC3gb4beD7gTaVosUNwOkhiMkn/AH0a6bV/ihY+HLbfFjToe0t4f/QQK+MPgp8QPjP8etZk07R72x03TYObvVhaD90PRf7xr6p0TwD4e8ABXumm8T+IPvG/v28xgf8AZ7D/AHRQQ9CGDWPFHjyQy6bYPBaHrqutApFj1ji+8344qWLwv4f0a7W61i6fxnqqHKifi2hP+zH92p7vVL3VmzcSkRdo1PH/ANaqots0HNzXNHUvFWoamnlqwtrYcCGIYAH0rHEbOSdm0/3qupaqoyeTTwz4xjcKtGbKUdqSTubIpGEcJIUjPtWjDZS3RIZfLT1qe30WC3c/N5ze9amPOTeHrm6tv3sVdWt5Z69F5GpwAt0EnQj8ayLSJYY9qrtHpU08H+jkitEY7lLUvAkts5ktZPNgrNTTPKJBbmuktdQmsSgZy8R7GtVrSy1aIlcLJ/eFMiVJNXRyENuFNW4oA3StKbR5LfOeQKhRdhNWcrgNt7NhzV5IyowcUkERbvxWjBZow+ZqCfZMzhbzSscLhfc4FXtM0q4vXK2cTTuOpPEY/GtCNNH05DPqNyZVHIiJwn41y3iH4uyKzW2jw7Il4DAYUfT1rJux3UaNtzspbTSdBi+0azdLO4GREhxGP8a47xF8XpJla10aIQwjjKDC15/fX0upSma7naVjzhj/AOy1CGyMRripR3KKLF7dT38jS3UzSMfU8VSd15A4FTICxweTU6aG9yNwOBWgtEYdxb5z3rsfC+o6j4ctVjuYv+Jcf/Ha0fD+m2tp5hEOX/vmtxShTG0YrJ6Gidy5p9jpWpRbrMxQTvzhV5NMudOn08HzQNv948Csz+z/ACG821lMMv6V0Gm+K/lFtqcYIPG/GQapM0SuctrvOl3n+5Xk4t6+hNX8Hrq9hP8A2W6MZBxGTxXkV5oF5ot81vf2rQSA/wAQ4P0NWN6DZLIvo8a98imWWm7O1dGtqDYRjHFPhtFCmpIKNpYhRkitO0txWvovha71RtyJsh7yScCu60zwvaaWoKKJpu8jDgfSgVjldJ8H3F5h5VNvAf436n6V3Gj+FbawjzDAYj3mn6mprzWdN8N6e17qNzHZwxjJnuXCoPzr5N+O3/BQbTNBll0bwLEdZ1XPl/aHH7sHp8q965KtaNJXkwbUFdn2CZYbL5Ayyv615N8Y/wBpTwl8J4HTUL9L/VMfJpdm2ZM/7R6KPrXyv8U/2gdZ0vw3aWX9oG78T3MCm5kVjtt9w5/4FXzROzXc8lzPI89zKcvLI25mP1rlw9d1tbDpyU1dHsXxa/an8ZfFUy2iXTaFobHAsbJtu8f7bdTXj4XGcksfU9ajXjinA8V3Gw7gUbhzUTNioTLjPNQUiw0uAartckGomlzUTN1qkWi5HMGNeX+KZvP126/2W213k119kjaVvuivL7q++2X9zMf43JqugE0ERatK2tM9qp2cgIrbsiDWYE1tY8dKs/Y/ar1pEGFXPsy0gPn+Kyq3DZDPStGGx9qtw2OKAKMFkPSrsNkOeKvQWVXIbLFAFKGyHpVyGz9qvQ2oq3Fbe1AFKGz46VbjtQqkgdquw23FWUt/lP0oA/Vj9n74a6X8OvgFoCabGEu7jTI76aWMcvM65JasX/Xiu3/Z08Rwaz8FPB/mOrF9LihOeeV+XFL4m+HVxpcz3WnKZ7YnLQdWHvQZzVziYrZV+6CTUyoQ2Op7KvJrUtNCnuAGmYQJ/dHWtm0sbaxH7uMM/wDebmg5eQ51NLkZcv8AKKs21pFCD8uTWjeRNuz1ogs9y5bit4pM4pNpleOHzOO1PS0CucDb71oQwKo4FTRWwlYhulaNGCTOOvLSSW8PmNnaflrVsZ5JU8p+1bv9jQyFi3XtWbLEtnMRgZHSg3RWvc71HoKuWRaKPIOKfbafc64f3MXH/PT+Gum0vwd5iYCvcy/+O/nTujWMbmbY3LXGVdSV9TVg6ZBgsM/Q1v3ehRaRDuuZ44gB0zXDa545tLRnht181um4dKXOkHs0aV3MlnCWO1EX1rldW8eyRq0dlGM9N9c1rWvySQyTXMzMvUIDXO6Zqlxre9Le1kVB/FiodQ2jBGrfatc6hLuupWlb3pP4B/CKrx27IcSNvatK206W5XptX1NRc0VO+xTMStnncau2tg9wV2LgVcewht/uHcfen6TdSZlGMAGmmKtSlSjzFqHS4bf5icmpvOOCoAUUEg85zmk2M/StUePKbZf0xSUariAgGl0SzJjYkVf+x7QazkexQ/hlaLnirKQZBpUt9pqygwMVmtDchtLyfQvmiP7jPKZ/lXQx6ppnie08i9iS4Ujo/wB5foaw59Pm1C2lhii82tDRPAsVgFku5hJIORHF0H1rVMGrlC9+Hj7QbGcmHPCv2Fa+jeCLKyAe4/0mT0PQV0CjsK8b+M37Vfgv4PW08NzepqWqIP8AjytW3bT/ALbfw1M6kYbkOUY7s9fllEUbNmOGCMfNI7BVUV86fHP9ubwT8Kraew0p18RawoKgQH9yjf7Td/wr5H+JX7SHxI/aMuZLTSj/AGF4ZjOHcMY4iPVj3riNL0Pw94QmNzEP+El1f+O8vBm3jP8AsJ3ryq2M6UtWYOt0gdD468ffEf4+7r/xLqTeH/DROY2mJjTb/dRP4jWDZXGj+EYjF4bshJeYw2sXq7pz7oD92oNQ1i91iXzLqdpQOFDcKo9FXoKqY4Nc9PDSq3nVHTpueshZpnuZnlmdpJn5d2PJPrUfFNLdajMnWvWirHZFJEpYCmGXGahaYDNQNKWzVDJ2nzkVUnYn+LFAJzVa5uY4gdx6UgJRMy99wrP1TXLfS4y8swz/AHAea5TW/H4QGPTxubpvNclLcPeOZbiQvIatFG7rviyfV2MSExwDsD1rJRuKrJ1NTIeDVAWYrl4j1rUstX2nkkVi0dKkDv8ATdZVxw1af9qD+8PzrzS1ungOQxq1/a0v940AWYbOrUVn7VeitDVmO0NQBUhtKtx2nBq3DaGrUVr1oApRW2O1W4bb2q3FbY61ZihA7UAVobXjpVlLYAVZjjqVYqAP0R/ZK1A3nwK8MnPMCyw/TEjV7jYa49r8rHeno1fN/wCxTqAufg7JbE5NpfSR/TPP9a94zgUCOjvdLs9fjMsJEU+PzrlbvTZ9PlKTIV9G7GrdtdyW7hkYityLVYNSi8m5UHPGTQTynGXEDEjHSpY7ZtnqK6DUvD7wgmEbo6yxA8eQDx3FbwZ59Sk7kMNozfd5PpU8Vt5Z+fr6VZs7SaVsQjnua3rTRowAZPmk9KcpAqTsYdrYyXMhWJG/3mHFaVp4UgeQvIgnk9G6VroYraN2kdY416ljtrlNb+LdnpW+GwT7XKOCFGB+dZc7NY0ktzs1tLbTYC9wyBFH+6orkPEfxXsLIPa6ev2uQcbV4Qf8Cry7WvF2qeIZWa7uGWM/8skOFrLX7u0KSPQVNyrI0da8S6jrMzPeXDHnhAaxi7sTgYHvVgwKgJ5IpY7dpUJC8U0Qyg1qlxGwl59BXS+D73+yYWWa3XyT0OKy0ZLPHmJvFakWrwvGF2Db6UyotM6w+EtM8QQefZt5FyRnB6Gua1HSr7QpikqEDsy8qavabJJaET2crZ6lH6V2Gma1a6xD9mv4xuPBBHFTqdtO0TzJpC/JFN0oZab613fiX4aEWzXGinevUwf/ABNYdtoslufs0itG8XBDURWpOMqKdKyK0FqZCMCtyw0sBcsKsW+nrCM1fjT5eBXQnY8anSS+ILKKKMlFOOOlWRCTxT7WEsfkj3Me9a9popxvmbaPSpZ6dNJRsjLi08THaoLP6Cr9voSx/wCv/wC+F61s2+nYXEeII+7nrUwuLaz+WJTJJ/z0bk1iWR22n7YuR9nh7Kv3mrg/ir8c/Bfwi01pdZ1KCKYDItEbdO34Vwf7Q/x607wjbnRLbxNFYatOCJTA26SBfXP8Jr8+/Fnh/TtX1ufUdV8Z33ieNnMnljmR2/2mrz6mKcJcvKcsqzUuSx6p8Wv21fG3xXvJtE8C20um6cxKs9r/AKwr6tJ2FeOw+FtM0i5N94gvX8S6053Naxsfs6H/AKaN/EasTa3J9k+x6dbJpWnjpBb/ACu3+83esxSEzzknrjtXP7OeI9+t8PYXsJ1PjNLU9cu9WURzOsVqnEdrAuyJB7KOv41n5FRE+9R+b1r0KVOlTVoxOuFOMFZEzS7c1A1x1qJ3zmoWbrW5qSNMTnmozITTM0delACk1GZcZ9qwvEHjjS/DasLybbKOkQ+81eOeLvinqXiJnggY2VkeNiH5mHuaAPTPE/xRsdE3wWzC7uvSL7qn/aavOtQ8Y3euMTczNjsinAFcOJjknJyepq1BMQOtAHXW94HXDgOPU9asAqw+Rsexrl7e9ZO9altd7hyaANmMEen51MvQ1Rt5dw61cU5FVcCUEUZFRb6VWzTAlBozSKciloA9JSD2qeOH2q2lv7VPHb1AFWOGrEcRqzHBViOCgCvHDU6Q+1WY4amSGgCvHDUyw+1WI4amSKgD64/YZvd/hLxPZ5/1N9HIB/vJ/wDY19J5NfJv7Dl/5Wt+LbAnAeCGYD6Mw/rX1epGaAJelHSmhuKUNQBr6brclqNj/vIumDW3FY2V8nnRYIPVfSuPXoafb3ctpJuicofbvVJktXO6xBaRfwxgDqa4bxF8VdM0YtDaD+0br/pn9z862hfW3iCxksb1QBIMH0NebeKPhjdaJI0+mYv7PPKD/WJ9a0vczsYut+MNU8RSMbiUxw9okOBWSo5qTAANNqGibDlUVPbQNK+1Rk1AnPSohfy6dqsQ7Hhv9nNKxmzZFmqLlzzVWaXGVXintNI+c1AwO6too5ZXIpIy455qNLdmOFOK1bW0aXtxWhDpSdSMGm0KKZU0+6mh4cVqi4eYfJxSxWIbqM1ZXT2VTsHFZnYqmhq6J4iu9OYCRvNj7t3rrY/sWvR7xgufzrhbGBmBGMH3rc0rRrx33QuYv9rtQHPfQtz6DcW/Qbx7VZsdDmmHzDaPet2FtvX5qWWUnIHAp3DkRFDaQ2IwmCac8pYVheLfGuh+BtKbUtf1ODTLNePMnbG72HrXyB8Yf26rrURcaZ4CtvskHKnVbkfvD/uLSUjVKx9U/Er4w+Gfhtp8l54i1aK2kA/d26MDPJ7KlfF3xb/bS8SeMEn07wqr+G9KfKtOjZuph7t/D+FfP+ravf8AiC9kvtVv57+7kOWluHLMf8Kp0h2HzSPcyvLNI00rnLPIdzMfUk1HwKGfANQtJ1rO1h2RIZMDiozJ1qMv1pm+grUe0lQeZQ7Dmod1SkUS76aTnNV5blYlLMwAHc1wPi74vWGhb7ezYXt7/dX7q/U0wO4vtSt9OheW4lWJFGcscV5J4o+NbMXh0NdvY3L/APsorz3xD4p1DxLctLfXBkGfliU4Rfw71jr1pgWrq6mvbmS4nkaaaQ7ndzkk1F0oHSigCSOrEbYBqtH0NTL3oAswv1rQtpMCsyKrsBxQBt2cvvWpFLkVh2rVpQtxQBe3AjrQrZqJORT0bGaAJkbFP800yJWkPAqX7LJ/dNAHtSQ1NHDVlbf2qZLegCukVTRxVYWCpUhoAhSOpljqZIakWKgCJEqVU4qRIqlWLigD2X9kDV49O+KE9o5x9utGTHqV5r7J3Y71+cHh3Wrvwtrtjq1g5jurOZZUI74PIPsRx+NfcHw2+LOj/EfTozbyC31JQPNsJTh1Pcr/ALNAHoIk96kV+KqI1Sq3FAFhXoBzUSmnqcUASopU5zg1rWGuNb4SX5k9axw9JmmnYVi14i8EWPiWJrqyZba8IzkD5XPuP615JrWk6l4fvmtr20kifsSOD9DXrFrdy2r7o2I9q3Ybyz123Nrfxq6kYG6rTJaPAfNOmL5sw5k6Cmx27auyMJMOe+K7fxl8Nbq1uWu7ZTeWCj/V9Sn0rI8P6Phd+PYUzBotQ2YkHPWrEOj5bJFasFgkQ96txxitYmDRRgsViXAFWorVT1FTmPFWrOyef7q5pMFEo/ZwFO0H61e0vSbi+YgDav8AebpW7ZaGEILp5r9l7Vv21isaZuiETtGnWsmaqDZj6R4fiiYhVN1P/wCOit2C1htlLysH/wCmY+7TLnVo7eLZHst4R6nGfqa+c/jB+2V4X8BtLYaNt8Ta0rFTFA2LeM+rPQjVRSPetT1ix0m1nvby4isrKLl55m2oo+tfK/xe/bq07RvOsPAsA1S6Hy/2pKP3K/7q/wAVfL3xN+NPi34r3jS6/qjG2BJi0+2JSCMfQdfxrg40Crj0plG74y8d6/8AEDVH1DxFqlxqMrHIWRuF9gvRaw0CADAIx60lNzgGlsCCTBYmmFwKYz9agaTrUGiRK0vWoS/WmF6aW4NIYpeoi/NIx61naprNlo0HnX1yltEf4nNAGgzY4JyfSuY8U+PNM8MRN9pmBmxxCpyxrzfxf8Z57vzLXR/3UfQ3J6n/AHa8yuJJr2VpbiVpnY5MkhyxoA6nxX8UNT8Ts8MbGxsjwIYzyR/tGuS4znJc+9IFAOBTwOKAFXkdMUCn0mKAHAZpdlLGKmVRigBiLgVIo4oAxTguaAJYVq5AKrwrxVyFaALtstaUQ4qjb8VowDdQBYh5Bq5a6e1w3AzV3SNCa5xkV2+j+GFiUEigDD0bw90LLW3/AGDH/c/Suw0rQ1wPl4rT/sJPagCRYqlSKpliqVI6AIViqRYqmWOnrHQBGsdPEdSqlOCUARqlSKnFPVKkCcUAVzHV7SdQutIu47mxme1uIzlZYzgg1X209RigD6c+E37RsOqGLSvEzpa3mAsd4eEm+voa94trmO4iWSJxIjDIZTkGvzvHSvTfhd8ddX8BFbO8LajpGQPLc/NGP9k9qAPspWzTt9c34O8caT420pL/AEu5WaJsbhn5kPow7GuhoAkV6kVqgU4p4NAE6mpUOKqq1Sq1UgNmw1tl/dzPujHQGrkmkWWrAtCRBJ6oOD9RXNg5PAqVL2Wx+aN8EUxWRpSeEWUn98Pypi+FpB0mX8RVQ/ECGyB+1RuQOrCq0nxm8JQ5FzqS2zDs9TzMycUdFb+HIIxmWQufQcVpQww264jjVR9K8vv/ANpv4aaeSJPFNozD+FQx/pXBeI/26PAOlK6abHfa1KOhji8pT+JpqYoxsfSAvCrbVGG+nJryb4vftLeDvhRFIl/qA1PVAPl02yYM+f8AaI+7XyP8S/2yvGfjmCaw0rZ4Y05sq32c7ppR/v8Ab6V4HK7zTvPI7STOctLISzsfUk0zZHrvxa/ag8Y/FYy2z3J0XRWOF06zO0MP9o9TXj/SjvRTQWHUUU1mwKgkUsBUJkFRvL1qu0vJqgJnYYNQOw5pjS8GoGkOaCybfUctykKFnYKPU1yXiz4j6P4aVo5rgT3faCPk/ie1eKeKviLqnitmjeQ21nniCM4z9aAPTfF/xos9JMtppqi9uxwXz+7SvHda8Q33iC5ae+naZj0Un5V+grNpaAExS5ooAzQAoWnhfWkAzT1XNQAgGacEJp6r6U5VoASNMVKq0KtPUUACx1IsdKi1Mi5oAIlq5CpbpzVjT9Gmu2AVTg122geCScNIuaAOb0zR57tgApwa7jRPBy8GRcmur0jwosartjx+FdVp/h8RYyKAMjSPDyxKoVP0rq7DSVQDIq/Z6cEAwK04bYIKAKsFiFHAxVj7KKsDA6Cl20AZixVKkVSLHUqpQBEI6esdSqtOVaAI1jpwjqYJTglAEKx1IsdSKlPVcUAQGKm7KsMKZigCPbSMmVIqXFIRwaAPNLv4reK/hF4g/t/w5eGC4TO+3fmGZf7rLX2d+zT+2b4V+OsEGmXLx6B4qjUCbTbhwFnPcwMfvV8peLPCkes2kny5OORXzp4r8F33hnVE1DT3ktriBxJHJCSrIwPVSKAP3E6U6vzm/Zk/4KEXOirbeGvigZJowBDb68o+Zf8ArsPT3r9BdB12z8QaXb39hdQ3tnOoaOeBwysPrQBqq2Ker1XVs08GqQE6yEUyV85zTAaRj8ppgct4gl2q9eAfEu5GyY/WvcfFEu1ZK+d/idc4gn5qCDwjVx5l7IazTDitO9+a4Y1TYdaAK2KKUjrSVZYUm6g00nFADXfGagaU80Sv15qqzk55oAV3zmoCTTbm6jtYWlkdUQd2OK8v8W/Gm3s2kg0creTLx52P3Y/xoA9B1rxBY6BatPfTrEoGQpPJ+grxrxl8Yb7Vd8GkA2cJ48w/fP8AhXB6xrV9r9411f3D3EpP8R4H0HaqfSgBsjyTytJMd8rHLMeSTSAc0/BNGDQAoWjbTsUYoAQJnvThHinIKlVeKAI1SpFXFKBT1FQAirTwtOUdadsoAVUODUkSdyM01Ax4FbelaDPd844NAGdFbPcPhRXXeH/B7zgNIvHvW9oHgpVKlhlq9I0bwyEjGQKAOb0TwusO0BP0ruNJ0ELgla17HSI4lGFrYt7IKKAK1lpqRqAFrSitB6VLHEEFSr0oAVECCijNFABRRRQAqpTglSqnFOCdaAIQlPVKkCU5UoAYFpwWpFSniOgCNU60/ZUqR08JQBVMXWk8qrfl9aPKoAp+XTDHV0xYzULJjNAFYpnNY2ueGbXV4XDxruI64rcIwTSYoA+cfHnwm2NLJAoXB7CpvgT+0x40/Zs8QGO2dtU0Bzi40m6YlCP70ZP3Gr3680+G9jKyIDnvXl3jr4WW+oxyPHGM9iBQgP0R+Bn7QvhH48+H01DQL5I75VH2jTZiFnhPuvp716kOK/Dq1Hib4S+IotX0K9uNOu4Gyk8BI79CO4r71/Zk/wCCgGlfEAW3h7x2Y9G8RHEcF90tro+7fwmrA+0simu2Eb6VWimE8ayKfkblT6inM3yke1AHF+LZMRyV82fFC4+SUeua+h/GEmI5a+ZvidPl3HvUEHls/wA0hNVymasuCSajxQBTcYqEnAqeYdarHvVljC55qMydaeR1rC8SeKtN8MWbXF/crGOgQH5mPsKANGRsk1xXi/4naZ4VDReYLq97W6f1NeaeMPjNf6x5kGlg2FuePM/5aGvOzulkaSR2d25LMck0AdF4r8eap4smb7TMUt8/LbxnCj/Guap1FADaVe9J0pw4qAHKODS0CpFGaAI6UDNTqlOEVAESLUgWnbMUYNWAKKcBikWnAZ6VLAcOKsW1hNdnCA4qxpWlvdyjIOK9L8OeF1CqSn6UgOf8OeC2l2tIufrXpWh+GEgVQEGfpWvpGggAALgV1+naQIwOKAMzS9CChflH5V0tppwjXpVm3tBGBxVoD0oAiigA7VZRAKRBUi96AEIpKU0LQA4UUUUAFFFFAF1RTgtCrT1XrQAipUiJSqtSKMUAIsdP2UoIpwOaAGqtOC09FzTxHQBGqVKsORTkj5qzHHQBUaDioHg61qGLiomi60AYs0GM1WwRmtqWDNUJrfkmgCmRwaiZM5q0UwKiZaAON8UeCrbV4ZCsa7z2x1rwDxj8M7vSLpri0VkKnOBxj6V9WFM8Vl6xosGpQMkiDdjg4qwOL/Zq/bo8QfBu6i8P+MvtPiDwwWCh5Wzc2Q9V/vL7V+k3gL4jaB8S/DUOt+GtRh1OwlGd8bDKH+6w7Gvym8efCiO6V3SPa46MtcZ4A+Jnjv8AZ58SDUPD1/JBHuHnWr5aCdfRl6fjQB+t3jmbZbyH618sfES7828Zc96l8Eft1eE/ibp0dprYXw7rGApgmb9zIf8AZasvxTcR6vKbi3YPETwR3qSTlyODVdupq99lfBqlePHaRtJNLHDGvV5G2gUhFObvVC9uY7OB5ppY4o15LSNgVxvjD426FoJeKzc6rdDosJ/dg+7V4V4v+IGr+MrkvezkQA/JbR8RoPp3qyz0fxr8c47ZJbfQP9ImHW5P3V/3fWvGtU1e91y5e4vZnmkY5+Y1CKbQBGFGakoooAKKMUAZoATApwWnBacq1ACBaeBSqtOwKAFXing4pqiloAKKK0tM0ia9b5VyKsCnBbtKRgV0mj+GZLoglcCt/QfB+Spddxr0TRvDIjVfkoA5/wAP+E1iRf3fP0rvtH0UIo+WtXTdDRUGRW7aWCxjhaAKthp4jA4rat4tooig21YRcUALtpdtLRQAqrThxRRUAFIBilooAKKKKACiiigDUVKft605aXbQTcaBinDpShKcqUBcRVzUqrQqVMq4oC4sScGpQnFEa8VMq0BcZHH1q0iYFMjWrCrxQO5ERTClWClIEzQFyo8WarSW+c8Vq+TkVG8GRQMwZrXGeKpyQ4zxW/ND1rPnh68UAYzgimYDZ3DmrjxcmozDwaAKFxaJNGVZQymuA8YfDa31eGQrGGz7V6SyFaaVBBoA+MvFnw4vdBd5Y4y8fXBFc7p2vaxpP/HnfXVp/wBcp2Wvs3xD4Vt9VgfCDceox1rwPxx8KHheWa0Qo/Urjg1YHnv/AAnviYf8xy//APAhqyL7UtQ1Ji13qFxcE/8APSQmlvbOaymaKeMxuOxFU6AGdKQgYNLSHpQAw0lOK0m2gCPBpwWlpwGKgBAlOCYpQMU8CgBAlKF/GngClAzQAm32oxT8UYzQAwVLBBJK2FBNXdP0SW9cYU4ruvD/AIPK4Lp+YoA57RfCj3ZBZTXoeheD1gAyn6V0ei+G0iC7Vrr7DSFQDK80AY+k6CsYB2V1Gn6aq4+WrtvYqo6VowwBR0oAjgtgo6VaVABT0TApwFADAAKcOlFJnmgBaUDNJTlFADlFOpBwKWgAooooFcKKKKCQooooA1kFSIKaop6igB6inqtNXpT17UAKBUiimipFWgCWIcVMq1HHxUyd6AHxryasonFQxDNWU6UAMK03bipiKQjigCPdTTzTitAWgtEMkW4Gqc1rkGtIrxUbLQBgPZnJ4qpND5ea351AB4rPlh8ygDHPOahZO4rTls9oJqo8WM0AVcVn6lo8N/GwdRkjrWoyYqOrA8X8c/C2G/SRljAfswFeDeJPB95oUzh4yUB4bFfbk9sk6FWAOa4zxR4Fg1OFx5QYEelAHxrRXr/iX4JXMLPJaqR3xiuEv/AerWBO+3LAegoA5rbSba1T4fvV/wCWDflUbaLdr1hb8qAM/aKUKCKstps69UNM+ySj+A1AEYQEUoQU/wApx2NAU0ARoDuNPHJxU8NnJNnFamleF7m8fjpQBlQW7zPtC11WieFTckEpmum0HwWke3zBub6V32k+HFjUAIB+FAHO6D4SWEL8n6V3GmaAAoymPwrWsNJSIDC5/Cty0tVA6UAZ9npHlgYHFa1vaADpV2G2wPapQgFAEccG0dKmVAKAcU4c0AFNJoJpKADBoC04L+NOC8UANC+tLRjFFAD6KKKBMKKKKCQooooAKKKKANlehqQdKjXoakHSgB6VIoqOOpF6UAOXrU0Y+ao0XmrES/NQAdGx71LH3qNh8/41Ig5NAE8HWrIqCEYqegBVpT0NMBpc+9ABRilH4UtADCOKYRUp/CmGgCvLFkGqptxk1okcVCV60FmTPDwaoSQcGtidOTVN0xmgDHkTGQagK1pzxBs4qkyYJzTTAr4puKmK8GoWHWqAikt45QQyg1l3vhiyuwd0S/lWvzSg+ooA5KfwLZvnEY/Ksu5+Gtm+SIlz9K9BCg9aXYtAHlUvwytwD+6H5VmXPwzt+f3I/KvZmjQg/LVaS0jb+GoA8Pl+GkGT+5H5VXPw2gH/ACxH5V7idMiPVRTDpER/hFAHjdl4Ciiz+6H5VqWXhGOF+IwPwr0v+xkGcLSrpSL2oA5TT/Dqp0T9K37PSVQDIrWit1jGMVMsQoAqx2iKOlTpCq9qk8qnBaABBTscUAUuKAGcUo4o8smlEeKAAYNKBijy/elCUAOopdtG2gTEopdtG2gkSil20baAEopdtG33oASiiigAooooA195pfMNFFACidl9Kcty/tRRQBLHcv14qaO9cHov5UUUASC7dsnC0ounHYUUUATx30i9l/KrT3LKOgoooAYLp/QUfan9BRRQA4XT46ClF247LRRQAhun54WmG7cdloooAZ9tf0WlF22PuJ+v+NFFBZBJKXY8AfSql0xoooAo7ziqcsrZNFFAFYzNzzURnfJ5oooAiedhnpTPtD+1FFAC/aX9vyoW5fPb8qKKAHfaX9vyppuH9qKKAG/aX56flQLpx6flRRQAn2lz6U4SEiiigBu404SHFFFAB5jetOVye9FFACqx5p24iiigBPNajzWoooAPOanCRqKKADzG9aPMb1oooEw8xvWjzG9aKKCQ80+1Hmn2oooAPNPtSrISaKKAF3n2o3n2oooAN59qN59qKKAP/9k=;direction=east;flipH=1;" vertex="1" parent="1">
          <mxGeometry x="1030" y="-480" width="131.92" height="140" as="geometry" />
        </mxCell>
        <mxCell id="hy1Hl5cKsVYk31SHtU6z-29" value="" style="shape=flexArrow;endArrow=classic;startArrow=classic;html=1;rounded=0;" edge="1" parent="1" source="hy1Hl5cKsVYk31SHtU6z-34" target="hy1Hl5cKsVYk31SHtU6z-21">
          <mxGeometry width="100" height="100" relative="1" as="geometry">
            <mxPoint x="365.56733034826925" y="-530.7196017910387" as="sourcePoint" />
            <mxPoint x="464" y="-400" as="targetPoint" />
          </mxGeometry>
        </mxCell>
        <mxCell id="hy1Hl5cKsVYk31SHtU6z-75" value="数据持久化" style="edgeLabel;html=1;align=center;verticalAlign=middle;resizable=0;points=[];" vertex="1" connectable="0" parent="hy1Hl5cKsVYk31SHtU6z-29">
          <mxGeometry x="0.0482" y="3" relative="1" as="geometry">
            <mxPoint x="-30" y="-70" as="offset" />
          </mxGeometry>
        </mxCell>
        <mxCell id="hy1Hl5cKsVYk31SHtU6z-30" value="" style="shape=flexArrow;endArrow=classic;startArrow=classic;html=1;rounded=0;exitX=0.992;exitY=0.439;exitDx=0;exitDy=0;entryX=0;entryY=0.5;entryDx=0;entryDy=0;entryPerimeter=0;exitPerimeter=0;" edge="1" parent="1" source="hy1Hl5cKsVYk31SHtU6z-34" target="hy1Hl5cKsVYk31SHtU6z-36">
          <mxGeometry width="100" height="100" relative="1" as="geometry">
            <mxPoint x="370.1999999999998" y="-555" as="sourcePoint" />
            <mxPoint x="581.6638600000001" y="-663.01" as="targetPoint" />
          </mxGeometry>
        </mxCell>
        <mxCell id="hy1Hl5cKsVYk31SHtU6z-74" value="数据持久化" style="edgeLabel;html=1;align=center;verticalAlign=middle;resizable=0;points=[];" vertex="1" connectable="0" parent="hy1Hl5cKsVYk31SHtU6z-30">
          <mxGeometry x="-0.2033" y="5" relative="1" as="geometry">
            <mxPoint as="offset" />
          </mxGeometry>
        </mxCell>
        <mxCell id="hy1Hl5cKsVYk31SHtU6z-33" value="" style="shape=flexArrow;endArrow=classic;startArrow=classic;html=1;rounded=0;entryX=0;entryY=0.5;entryDx=0;entryDy=0;" edge="1" parent="1" source="hy1Hl5cKsVYk31SHtU6z-21" target="hy1Hl5cKsVYk31SHtU6z-26">
          <mxGeometry width="100" height="100" relative="1" as="geometry">
            <mxPoint x="770" y="-438.5" as="sourcePoint" />
            <mxPoint x="968" y="-281.5" as="targetPoint" />
          </mxGeometry>
        </mxCell>
        <mxCell id="hy1Hl5cKsVYk31SHtU6z-67" value="管理用药信息、设置用药提醒等" style="edgeLabel;html=1;align=center;verticalAlign=middle;resizable=0;points=[];" vertex="1" connectable="0" parent="hy1Hl5cKsVYk31SHtU6z-33">
          <mxGeometry x="0.0255" y="-4" relative="1" as="geometry">
            <mxPoint x="-12" y="-18" as="offset" />
          </mxGeometry>
        </mxCell>
        <mxCell id="hy1Hl5cKsVYk31SHtU6z-87" value="对各种用药参数进行反馈等" style="edgeLabel;html=1;align=center;verticalAlign=middle;resizable=0;points=[];" vertex="1" connectable="0" parent="hy1Hl5cKsVYk31SHtU6z-33">
          <mxGeometry x="-0.0777" y="-1" relative="1" as="geometry">
            <mxPoint x="6" y="14" as="offset" />
          </mxGeometry>
        </mxCell>
        <mxCell id="hy1Hl5cKsVYk31SHtU6z-34" value="腾讯云" style="image;aspect=fixed;perimeter=ellipsePerimeter;html=1;align=center;shadow=0;dashed=0;spacingTop=3;image=img/lib/active_directory/internet_cloud.svg;" vertex="1" parent="1">
          <mxGeometry x="290" y="-820" width="160.32" height="101" as="geometry" />
        </mxCell>
        <mxCell id="hy1Hl5cKsVYk31SHtU6z-36" value="移动端&lt;br&gt;微信小程序" style="outlineConnect=0;dashed=0;verticalLabelPosition=bottom;verticalAlign=top;align=center;html=1;shape=mxgraph.aws3.mobile_client;fillColor=#D2D3D3;gradientColor=none;" vertex="1" parent="1">
          <mxGeometry x="568.16" y="-720" width="74.09" height="110" as="geometry" />
        </mxCell>
        <mxCell id="hy1Hl5cKsVYk31SHtU6z-44" value="" style="endArrow=async;startArrow=openAsync;html=1;rounded=0;exitX=1;exitY=0.5;exitDx=0;exitDy=0;exitPerimeter=0;startFill=0;endFill=1;strokeWidth=1;shape=flexArrow;targetPerimeterSpacing=-1;sourcePerimeterSpacing=8;endSize=7;startSize=9;" edge="1" parent="1" source="hy1Hl5cKsVYk31SHtU6z-36" target="hy1Hl5cKsVYk31SHtU6z-26">
          <mxGeometry width="100" height="100" relative="1" as="geometry">
            <mxPoint x="460" y="-500" as="sourcePoint" />
            <mxPoint x="560" y="-600" as="targetPoint" />
          </mxGeometry>
        </mxCell>
        <mxCell id="hy1Hl5cKsVYk31SHtU6z-72" value="管理用药信息、设置用药提醒等" style="edgeLabel;html=1;align=center;verticalAlign=middle;resizable=0;points=[];rotation=30;" vertex="1" connectable="0" parent="hy1Hl5cKsVYk31SHtU6z-44">
          <mxGeometry x="-0.025" y="6" relative="1" as="geometry">
            <mxPoint x="-7" y="-20" as="offset" />
          </mxGeometry>
        </mxCell>
        <mxCell id="hy1Hl5cKsVYk31SHtU6z-73" value="对各种用药参数进行反馈等" style="edgeLabel;html=1;align=center;verticalAlign=middle;resizable=0;points=[];rotation=30;" vertex="1" connectable="0" parent="hy1Hl5cKsVYk31SHtU6z-44">
          <mxGeometry x="0.1587" y="-2" relative="1" as="geometry">
            <mxPoint x="-66" y="-23" as="offset" />
          </mxGeometry>
        </mxCell>
        <mxCell id="hy1Hl5cKsVYk31SHtU6z-60" style="rounded=0;orthogonalLoop=1;jettySize=auto;html=1;" edge="1" parent="1" source="hy1Hl5cKsVYk31SHtU6z-48" target="hy1Hl5cKsVYk31SHtU6z-36">
          <mxGeometry relative="1" as="geometry" />
        </mxCell>
        <mxCell id="hy1Hl5cKsVYk31SHtU6z-65" value="设置服药数量和时间，&lt;br&gt;查看提醒" style="edgeLabel;html=1;align=center;verticalAlign=middle;resizable=0;points=[];" vertex="1" connectable="0" parent="hy1Hl5cKsVYk31SHtU6z-60">
          <mxGeometry x="-0.1424" y="-4" relative="1" as="geometry">
            <mxPoint x="-28" y="-6" as="offset" />
          </mxGeometry>
        </mxCell>
        <mxCell id="hy1Hl5cKsVYk31SHtU6z-63" style="rounded=0;orthogonalLoop=1;jettySize=auto;html=1;" edge="1" parent="1" source="hy1Hl5cKsVYk31SHtU6z-48">
          <mxGeometry relative="1" as="geometry">
            <mxPoint x="1020" y="-470" as="targetPoint" />
          </mxGeometry>
        </mxCell>
        <mxCell id="hy1Hl5cKsVYk31SHtU6z-64" value="放置药品" style="edgeLabel;html=1;align=center;verticalAlign=middle;resizable=0;points=[];" vertex="1" connectable="0" parent="hy1Hl5cKsVYk31SHtU6z-63">
          <mxGeometry x="-0.1237" y="-1" relative="1" as="geometry">
            <mxPoint y="1" as="offset" />
          </mxGeometry>
        </mxCell>
        <mxCell id="hy1Hl5cKsVYk31SHtU6z-48" value="家属" style="shape=umlActor;verticalLabelPosition=bottom;verticalAlign=top;html=1;outlineConnect=0;" vertex="1" parent="1">
          <mxGeometry x="780" y="-820" width="30" height="60" as="geometry" />
        </mxCell>
        <mxCell id="hy1Hl5cKsVYk31SHtU6z-62" style="rounded=0;orthogonalLoop=1;jettySize=auto;html=1;" edge="1" parent="1" source="hy1Hl5cKsVYk31SHtU6z-50" target="hy1Hl5cKsVYk31SHtU6z-26">
          <mxGeometry relative="1" as="geometry" />
        </mxCell>
        <mxCell id="hy1Hl5cKsVYk31SHtU6z-68" value="放置药品" style="edgeLabel;html=1;align=center;verticalAlign=middle;resizable=0;points=[];" vertex="1" connectable="0" parent="hy1Hl5cKsVYk31SHtU6z-62">
          <mxGeometry x="-0.0166" y="1" relative="1" as="geometry">
            <mxPoint as="offset" />
          </mxGeometry>
        </mxCell>
        <mxCell id="hy1Hl5cKsVYk31SHtU6z-50" value="医护人员" style="shape=umlActor;verticalLabelPosition=bottom;verticalAlign=top;html=1;outlineConnect=0;" vertex="1" parent="1">
          <mxGeometry x="780" y="-380" width="30" height="60" as="geometry" />
        </mxCell>
        <mxCell id="hy1Hl5cKsVYk31SHtU6z-55" style="edgeStyle=orthogonalEdgeStyle;rounded=0;orthogonalLoop=1;jettySize=auto;html=1;" edge="1" parent="1" source="hy1Hl5cKsVYk31SHtU6z-51" target="hy1Hl5cKsVYk31SHtU6z-21">
          <mxGeometry relative="1" as="geometry">
            <Array as="points">
              <mxPoint x="440" y="-350" />
              <mxPoint x="440" y="-350" />
            </Array>
          </mxGeometry>
        </mxCell>
        <mxCell id="hy1Hl5cKsVYk31SHtU6z-77" value="运维" style="edgeLabel;html=1;align=center;verticalAlign=middle;resizable=0;points=[];" vertex="1" connectable="0" parent="hy1Hl5cKsVYk31SHtU6z-55">
          <mxGeometry x="-0.1725" y="1" relative="1" as="geometry">
            <mxPoint as="offset" />
          </mxGeometry>
        </mxCell>
        <mxCell id="hy1Hl5cKsVYk31SHtU6z-57" style="edgeStyle=orthogonalEdgeStyle;rounded=0;orthogonalLoop=1;jettySize=auto;html=1;entryX=0;entryY=0.5;entryDx=0;entryDy=0;" edge="1" parent="1" source="hy1Hl5cKsVYk31SHtU6z-51" target="hy1Hl5cKsVYk31SHtU6z-34">
          <mxGeometry relative="1" as="geometry">
            <Array as="points">
              <mxPoint x="290" y="-470" />
              <mxPoint x="290" y="-470" />
            </Array>
          </mxGeometry>
        </mxCell>
        <mxCell id="hy1Hl5cKsVYk31SHtU6z-76" value="服务器及&lt;br&gt;数据库管理运维" style="edgeLabel;html=1;align=center;verticalAlign=middle;resizable=0;points=[];" vertex="1" connectable="0" parent="hy1Hl5cKsVYk31SHtU6z-57">
          <mxGeometry x="-0.0193" relative="1" as="geometry">
            <mxPoint as="offset" />
          </mxGeometry>
        </mxCell>
        <mxCell id="hy1Hl5cKsVYk31SHtU6z-51" value="本公司运维人员" style="shape=umlActor;verticalLabelPosition=bottom;verticalAlign=top;html=1;outlineConnect=0;" vertex="1" parent="1">
          <mxGeometry x="280.32" y="-380" width="30" height="60" as="geometry" />
        </mxCell>
        <mxCell id="hy1Hl5cKsVYk31SHtU6z-53" value="用药者" style="image;aspect=fixed;perimeter=ellipsePerimeter;html=1;align=center;shadow=0;dashed=0;spacingTop=3;image=img/lib/active_directory/user.svg;flipH=1;" vertex="1" parent="1">
          <mxGeometry x="1075.61" y="-829" width="40.7" height="110" as="geometry" />
        </mxCell>
        <mxCell id="hy1Hl5cKsVYk31SHtU6z-58" style="edgeStyle=orthogonalEdgeStyle;rounded=0;orthogonalLoop=1;jettySize=auto;html=1;entryX=0.202;entryY=1.037;entryDx=0;entryDy=0;entryPerimeter=0;" edge="1" parent="1" source="hy1Hl5cKsVYk31SHtU6z-50" target="hy1Hl5cKsVYk31SHtU6z-21">
          <mxGeometry relative="1" as="geometry">
            <Array as="points">
              <mxPoint x="730" y="-346" />
              <mxPoint x="730" y="-346" />
            </Array>
          </mxGeometry>
        </mxCell>
        <mxCell id="hy1Hl5cKsVYk31SHtU6z-78" value="对用药方案进行设置" style="edgeLabel;html=1;align=center;verticalAlign=middle;resizable=0;points=[];" vertex="1" connectable="0" parent="hy1Hl5cKsVYk31SHtU6z-58">
          <mxGeometry x="0.1767" y="1" relative="1" as="geometry">
            <mxPoint as="offset" />
          </mxGeometry>
        </mxCell>
        <mxCell id="hy1Hl5cKsVYk31SHtU6z-83" style="rounded=0;orthogonalLoop=1;jettySize=auto;html=1;" edge="1" parent="1" source="hy1Hl5cKsVYk31SHtU6z-80" target="hy1Hl5cKsVYk31SHtU6z-21">
          <mxGeometry relative="1" as="geometry" />
        </mxCell>
        <mxCell id="hy1Hl5cKsVYk31SHtU6z-85" value="开发/更新" style="edgeLabel;html=1;align=center;verticalAlign=middle;resizable=0;points=[];" vertex="1" connectable="0" parent="hy1Hl5cKsVYk31SHtU6z-83">
          <mxGeometry x="0.1117" y="3" relative="1" as="geometry">
            <mxPoint as="offset" />
          </mxGeometry>
        </mxCell>
        <mxCell id="hy1Hl5cKsVYk31SHtU6z-80" value="开发人员" style="shape=umlActor;verticalLabelPosition=bottom;verticalAlign=top;html=1;outlineConnect=0;" vertex="1" parent="1">
          <mxGeometry x="480" y="-570" width="30" height="60" as="geometry" />
        </mxCell>
        <mxCell id="hy1Hl5cKsVYk31SHtU6z-81" style="rounded=0;orthogonalLoop=1;jettySize=auto;html=1;entryX=0;entryY=0.5;entryDx=0;entryDy=0;entryPerimeter=0;" edge="1" parent="1" source="hy1Hl5cKsVYk31SHtU6z-80" target="hy1Hl5cKsVYk31SHtU6z-36">
          <mxGeometry relative="1" as="geometry" />
        </mxCell>
        <mxCell id="hy1Hl5cKsVYk31SHtU6z-84" value="开发/更新" style="edgeLabel;html=1;align=center;verticalAlign=middle;resizable=0;points=[];" vertex="1" connectable="0" parent="hy1Hl5cKsVYk31SHtU6z-81">
          <mxGeometry x="-0.2" y="1" relative="1" as="geometry">
            <mxPoint as="offset" />
          </mxGeometry>
        </mxCell>
        <mxCell id="hy1Hl5cKsVYk31SHtU6z-88" style="rounded=0;orthogonalLoop=1;jettySize=auto;html=1;entryX=1.028;entryY=0.431;entryDx=0;entryDy=0;entryPerimeter=0;" edge="1" parent="1" source="hy1Hl5cKsVYk31SHtU6z-80" target="hy1Hl5cKsVYk31SHtU6z-26">
          <mxGeometry relative="1" as="geometry" />
        </mxCell>
        <mxCell id="hy1Hl5cKsVYk31SHtU6z-89" value="开发/升级" style="edgeLabel;html=1;align=center;verticalAlign=middle;resizable=0;points=[];rotation=15;" vertex="1" connectable="0" parent="hy1Hl5cKsVYk31SHtU6z-88">
          <mxGeometry x="-0.071" y="-1" relative="1" as="geometry">
            <mxPoint x="10" y="-9" as="offset" />
          </mxGeometry>
        </mxCell>
      </root>
    </mxGraphModel>
  </diagram>
</mxfile>
